
<svg version="1.0" xmlns="http://www.w3.org/2000/svg"
 width="1024.000000pt" height="1024.000000pt" viewBox="0 0 1024.000000 1024.000000"
 preserveAspectRatio="xMidYMid meet">

<g transform="translate(0.000000,1024.000000) scale(0.100000,-0.100000)"
fill="#ffffffff" stroke="none">
<path d="M3320 7269 c-128 -33 -215 -82 -305 -173 -90 -90 -139 -173 -176
-296 -22 -73 -23 -92 -29 -635 -5 -550 -6 -561 -28 -616 -26 -65 -79 -131
-134 -165 -21 -13 -82 -39 -136 -57 l-97 -32 -3 -191 c-2 -145 1 -194 10 -201
7 -6 51 -22 98 -36 144 -44 213 -104 262 -226 22 -55 23 -66 28 -611 l6 -555
28 -90 c42 -139 89 -218 181 -311 63 -64 98 -90 165 -123 121 -59 197 -71 457
-71 210 0 246 5 265 34 4 6 8 80 8 164 0 133 -2 154 -18 170 -15 15 -47 20
-174 30 -177 13 -240 31 -307 88 -50 44 -85 109 -100 189 -7 37 -11 229 -11
514 0 517 -3 542 -71 681 -35 71 -59 101 -143 185 -56 56 -128 115 -161 135
l-60 34 56 28 c107 53 250 200 308 317 65 127 64 120 71 661 7 543 8 553 70
638 65 90 145 120 340 128 149 6 185 15 194 47 3 12 6 91 6 175 0 209 25 192
-282 191 -207 0 -254 -3 -318 -20z"/>
<path d="M6347 7272 c-15 -16 -17 -42 -17 -183 0 -123 3 -170 14 -184 11 -16
34 -19 168 -26 85 -4 173 -12 195 -18 100 -27 189 -120 214 -223 9 -37 15
-202 19 -543 7 -535 5 -518 71 -646 67 -130 186 -252 308 -318 l56 -30 -29
-11 c-50 -19 -149 -95 -217 -167 -77 -82 -128 -163 -160 -253 -23 -64 -24 -74
-29 -585 -7 -562 -7 -562 -63 -658 -57 -97 -143 -131 -369 -149 -84 -6 -156
-17 -166 -24 -15 -11 -16 -31 -14 -175 2 -98 7 -168 14 -176 8 -10 69 -13 268
-13 288 0 355 10 473 72 81 42 211 172 255 255 93 176 102 251 102 843 0 571
4 598 97 701 42 47 97 77 202 110 46 15 79 32 88 45 10 17 13 61 11 199 l-3
178 -98 33 c-54 18 -112 42 -130 53 -76 47 -138 140 -156 234 -5 28 -12 282
-15 562 -6 579 -9 612 -79 755 -55 114 -168 228 -277 283 -131 65 -165 70
-455 75 -246 3 -262 2 -278 -16z"/>
<path d="M4392 6800 c-200 -53 -352 -192 -441 -402 l-26 -63 -3 -1260 c-3
-1396 -5 -1355 61 -1480 49 -92 193 -231 287 -277 41 -20 99 -41 128 -47 85
-18 1564 -14 1665 4 225 40 420 225 466 443 8 38 11 421 11 1315 0 1389 3
1313 -61 1446 -46 93 -151 199 -247 249 -42 22 -108 51 -147 63 l-70 24 -775
2 c-737 2 -779 1 -848 -17z m1586 -324 c104 -28 183 -93 226 -185 21 -46 21
-50 24 -1220 2 -761 -1 -1193 -8 -1229 -21 -113 -81 -190 -189 -241 l-56 -26
-740 0 -740 0 -66 31 c-78 37 -129 87 -167 163 l-27 56 -3 348 c-2 257 0 352
9 363 16 19 498 21 517 2 9 -9 12 -73 12 -228 0 -179 3 -219 16 -238 15 -22
16 -22 342 -22 l327 0 23 -40 c26 -46 84 -91 148 -116 57 -22 171 -15 234 13
56 25 119 86 145 138 29 60 32 161 7 218 -27 61 -95 133 -157 165 -43 23 -62
27 -135 27 -68 0 -93 -5 -125 -22 -49 -26 -123 -103 -137 -144 l-10 -29 -239
0 -239 0 0 145 0 145 174 0 c145 0 177 3 190 16 13 13 16 46 16 210 l0 194 88
0 87 0 20 -36 c28 -53 88 -101 146 -118 65 -20 92 -20 155 -1 151 45 225 224
149 364 -48 87 -127 134 -227 133 -75 0 -137 -30 -190 -93 l-41 -49 -177 0
c-136 0 -181 -3 -196 -14 -17 -13 -19 -31 -24 -208 l-5 -193 -439 -3 c-316 -1
-443 1 -452 9 -10 8 -14 40 -14 115 l0 104 313 0 c267 0 316 2 335 16 l22 15
0 380 0 379 288 0 287 -1 30 -52 c53 -92 156 -144 270 -134 99 7 182 61 231
149 25 46 29 63 29 133 0 70 -4 87 -29 133 -52 93 -137 150 -235 159 -106 10
-209 -40 -263 -127 l-31 -50 -381 0 c-284 0 -385 -3 -394 -12 -9 -9 -12 -109
-12 -390 l0 -378 -230 0 -230 0 0 498 c0 548 1 554 61 645 38 57 103 104 178
128 52 16 112 18 756 18 570 1 710 -2 753 -13z m-182 -550 c50 -42 31 -125
-31 -140 -55 -14 -108 41 -97 101 5 26 54 63 84 63 9 0 29 -11 44 -24z m-2
-1707 c35 -41 34 -83 -3 -120 -20 -20 -39 -29 -61 -29 -45 0 -90 47 -90 95 0
82 101 117 154 54z"/>
</g>
</svg>
